<svg xmlns="http://www.w3.org/2000/svg" width="24" height="24" viewBox="0 0 24 24" fill="none" stroke="currentColor" stroke-width="2" stroke-linecap="round" stroke-linejoin="round"><mask id="m-nova-secure-delete"><rect width="24" height="24" fill="#fff" stroke="none"/><circle cx="18" cy="18" r="7.2" fill="#000" stroke="none"/></mask><g mask="url(#m-nova-secure-delete)"><path d="M6 22a2 2 0 0 1-2-2V4a2 2 0 0 1 2-2h8a2.4 2.4 0 0 1 1.704.706l3.588 3.588A2.4 2.4 0 0 1 20 8v12a2 2 0 0 1-2 2z" /> <path d="M14 2v5a1 1 0 0 0 1 1h5" /></g><g transform="translate(12.6 12.6) scale(0.45)" stroke-width="4.44"><path d="M18 6 6 18" /> <path d="m6 6 12 12" /></g></svg>
