<svg xmlns="http://www.w3.org/2000/svg" width="512" height="512" viewBox="0 0 512 512">
<defs><linearGradient id="gwink" x1="0" y1="0" x2="1" y2="1"><stop offset="0" stop-color="#ffb066"/><stop offset="1" stop-color="#3d6dff"/></linearGradient></defs>
<g transform="rotate(5 256 230) translate(76 28) scale(1.2)"><rect x="34" y="40" width="232" height="220" rx="78" fill="#fff" stroke="#fff" stroke-width="44" stroke-linejoin="round"/><rect x="34" y="40" width="232" height="220" rx="78" fill="#121218" stroke="url(#gwink)" stroke-width="8"/><rect x="104.0" y="119.0" width="26" height="62" rx="13.0" fill="#f2f2f4"/><path d="M164 156 Q183 128 202 156" fill="none" stroke="#f2f2f4" stroke-width="12" stroke-linecap="round" stroke-linejoin="round"/><path d="M214 64C216.09 75.97 221.03 80.91 233 83C221.03 85.09 216.09 90.03 214 102C211.91 90.03 206.97 85.09 195 83C206.97 80.91 211.91 75.97 214 64z" fill="#ffb066"/></g>
<text x="256" y="468" text-anchor="middle" font-family="GeistV" font-weight="900" font-size="68" letter-spacing="-2"
 stroke="#fff" stroke-width="22" stroke-linejoin="round" paint-order="stroke" fill="#121218" transform="rotate(-2.5 256 440)">gotcha</text>
</svg>