<svg xmlns="http://www.w3.org/2000/svg" width="24" height="24" viewBox="0 0 24 24">
  <defs/>
  <path fill="#2e3436" d="M7.831,21.079 L2.321,22.947 Q2,23.056 1.679,22.947 Q1.287,22.814 1.103,22.443 Q0.92,22.071 1.053,21.679 L2.921,16.169 Q1.475,13.059 2.279,9.678 Q3.134,6.085 6.119,3.91 Q9.104,1.735 12.786,2.022 Q16.468,2.31 19.079,4.921 Q21.69,7.532 21.978,11.214 Q22.265,14.896 20.09,17.881 Q17.915,20.866 14.322,21.721 Q10.941,22.525 7.831,21.079 Z M8.356,19.11 Q10.985,20.459 13.859,19.775 Q16.734,19.091 18.474,16.703 Q20.213,14.315 19.984,11.37 Q19.754,8.424 17.665,6.335 Q15.576,4.246 12.63,4.016 Q9.685,3.787 7.297,5.526 Q4.909,7.266 4.225,10.141 Q3.541,13.015 4.89,15.644 Q5.083,16.02 4.947,16.421 L3.597,20.403 L7.579,19.053 Q7.98,18.917 8.356,19.11 Z"/>
  <path fill="#2e3436" d="M12.991,7.367 Q13.388,10.312 16.333,10.709 Q16.744,10.764 16.995,11.094 Q17.246,11.423 17.191,11.833 Q17.146,12.168 16.907,12.407 Q16.668,12.646 16.333,12.691 Q13.388,13.088 12.991,16.033 Q12.936,16.444 12.606,16.695 Q12.277,16.946 11.867,16.891 Q11.532,16.846 11.293,16.607 Q11.054,16.368 11.009,16.033 Q10.612,13.088 7.667,12.691 Q7.256,12.636 7.005,12.306 Q6.754,11.977 6.809,11.567 Q6.854,11.232 7.093,10.993 Q7.332,10.754 7.667,10.709 Q10.612,10.312 11.009,7.367 Q11.064,6.956 11.394,6.705 Q11.723,6.454 12.133,6.509 Q12.468,6.554 12.707,6.793 Q12.946,7.032 12.991,7.367 Z M12,10.432 Q11.487,11.187 10.732,11.7 Q11.487,12.213 12,12.968 Q12.513,12.213 13.268,11.7 Q12.513,11.187 12,10.432 Z"/>
</svg>

