<svg xmlns="http://www.w3.org/2000/svg" width="24" height="24" viewBox="0 0 24 24">
  <defs/>
  <path fill="#2e3436" d="M7,1 L17,1 Q20,1 20,4 L20,20 Q20,23 17,23 L7,23 Q4,23 4,20 L4,4 Q4,1 7,1 Z M7,3 Q6,3 6,4 L6,20 Q6,21 7,21 L17,21 Q18,21 18,20 L18,4 Q18,3 17,3 Z"/>
  <path fill="#2e3436" d="M12,17 L12.01,17 Q12.424,17 12.717,17.293 Q13.01,17.586 13.01,18 Q13.01,18.414 12.717,18.707 Q12.424,19 12.01,19 L12,19 Q11.586,19 11.293,18.707 Q11,18.414 11,18 Q11,17.586 11.293,17.293 Q11.586,17 12,17 Z"/>
</svg>

