<svg xmlns="http://www.w3.org/2000/svg" width="24" height="24" viewBox="0 0 24 24">
  <defs/>
  <path fill="#2e3436" d="M16.664,15.207 Q16.024,18.238 14.329,20.713 Q15.474,20.4 16.564,19.758 Q19.549,18.003 20.588,14.7 Q20.712,14.305 21.08,14.113 Q21.447,13.922 21.842,14.046 Q22.237,14.17 22.429,14.538 Q22.62,14.905 22.496,15.3 Q21.226,19.337 17.578,21.482 Q13.93,23.627 9.784,22.774 Q5.639,21.921 3.135,18.509 Q0.631,15.097 1.059,10.887 Q1.487,6.676 4.628,3.839 Q7.768,1.001 12,1 Q12.4,1 12.69,1.276 Q12.99,1.562 13,1.976 Q13.01,2.39 12.724,2.69 Q9,6.6 9,12 Q9,16.845 11.998,20.491 Q14.03,17.999 14.708,14.793 Q14.793,14.388 15.14,14.162 Q15.488,13.936 15.893,14.022 Q16.298,14.107 16.524,14.454 Q16.75,14.802 16.664,15.207 Z M9.639,20.686 Q7,16.871 7,12 Q7,7.116 9.653,3.293 Q7.625,3.825 5.968,5.323 Q3.399,7.644 3.049,11.089 Q2.698,14.534 4.747,17.325 Q6.628,19.887 9.639,20.686 Z"/>
  <path fill="#2e3436" d="M2,11 L10.5,11 Q10.914,11 11.207,11.293 Q11.5,11.586 11.5,12 Q11.5,12.414 11.207,12.707 Q10.914,13 10.5,13 L2,13 Q1.586,13 1.293,12.707 Q1,12.414 1,12 Q1,11.586 1.293,11.293 Q1.586,11 2,11 Z"/>
  <path fill="#2e3436" d="M19,6 L19,4 Q19,3 18,3 Q17,3 17,4 L17,6 Q17,6.414 16.707,6.707 Q16.414,7 16,7 Q15.586,7 15.293,6.707 Q15,6.414 15,6 L15,4 Q15,1 18,1 Q21,1 21,4 L21,6 Q21,6.414 20.707,6.707 Q20.414,7 20,7 Q19.586,7 19.293,6.707 Q19,6.414 19,6 Z"/>
  <path fill="#2e3436" d="M15,5 L21,5 Q23,5 23,7 L23,10 Q23,12 21,12 L15,12 Q13,12 13,10 L13,7 Q13,5 15,5 Z M15,7 L15,10 L21,10 L21,7 Z"/>
</svg>

