<svg xmlns="http://www.w3.org/2000/svg" width="24" height="24" viewBox="0 0 24 24">
  <defs/>
  <path fill="#2e3436" d="M18.293,4.293 L21.293,1.293 Q21.586,1 22,1 Q22.414,1 22.707,1.293 Q23,1.586 23,2 Q23,2.414 22.707,2.707 L19.707,5.707 Q19.414,6 19,6 Q18.586,6 18.293,5.707 Q18,5.414 18,5 Q18,4.586 18.293,4.293 Z"/>
  <path fill="#2e3436" d="M1.293,21.293 L4.293,18.293 Q4.586,18 5,18 Q5.414,18 5.707,18.293 Q6,18.586 6,19 Q6,19.414 5.707,19.707 L2.707,22.707 Q2.414,23 2,23 Q1.586,23 1.293,22.707 Q1,22.414 1,22 Q1,21.586 1.293,21.293 Z"/>
  <path fill="#2e3436" d="M5.593,21.007 L2.994,18.408 Q1.994,17.412 1.994,16 Q1.994,14.588 2.993,13.593 L5.293,11.293 Q5.586,11 6,11 Q6.414,11 6.707,11.293 L12.707,17.293 Q13,17.586 13,18 Q13,18.414 12.707,18.707 L10.408,21.006 Q9.412,22.006 8,22.006 Q6.589,22.006 5.593,21.007 Z M7.008,19.594 Q7.419,20.006 8,20.006 Q8.581,20.006 8.992,19.594 L10.586,18 L6,13.414 L4.407,15.007 Q3.994,15.419 3.994,16 Q3.994,16.581 4.406,16.992 L7.007,19.593 Z"/>
  <path fill="#2e3436" d="M6.793,12.793 L9.293,10.293 Q9.586,10 10,10 Q10.414,10 10.707,10.293 Q11,10.586 11,11 Q11,11.414 10.707,11.707 L8.207,14.207 Q7.914,14.5 7.5,14.5 Q7.086,14.5 6.793,14.207 Q6.5,13.914 6.5,13.5 Q6.5,13.086 6.793,12.793 Z"/>
  <path fill="#2e3436" d="M9.793,15.793 L12.293,13.293 Q12.586,13 13,13 Q13.414,13 13.707,13.293 Q14,13.586 14,14 Q14,14.414 13.707,14.707 L11.207,17.207 Q10.914,17.5 10.5,17.5 Q10.086,17.5 9.793,17.207 Q9.5,16.914 9.5,16.5 Q9.5,16.086 9.793,15.793 Z"/>
  <path fill="#2e3436" d="M11.293,6.707 Q11,6.414 11,6 Q11,5.586 11.293,5.293 L13.592,2.994 Q14.588,1.994 16,1.994 Q17.412,1.994 18.407,2.993 L21.006,5.592 Q22.006,6.588 22.006,8 Q22.006,9.412 21.007,10.407 L18.707,12.707 Q18.414,13 18,13 Q17.586,13 17.293,12.707 Z M13.414,6 L18,10.586 L19.593,8.993 Q20.006,8.581 20.006,8 Q20.006,7.419 19.594,7.008 L16.993,4.407 Q16.581,3.994 16,3.994 Q15.419,3.994 15.008,4.406 L13.414,6 Z"/>
</svg>

