<svg xmlns="http://www.w3.org/2000/svg" width="24" height="24" viewBox="0 0 24 24">
  <defs/>
  <path fill="#2e3436" d="M13,2 L13,12 Q13,12.414 12.707,12.707 Q12.414,13 12,13 Q11.586,13 11.293,12.707 Q11,12.414 11,12 L11,2 Q11,1.586 11.293,1.293 Q11.586,1 12,1 Q12.414,1 12.707,1.293 Q13,1.586 13,2 Z"/>
  <path fill="#2e3436" d="M19.107,5.893 Q22.031,8.818 22.035,12.954 Q22.039,17.089 19.12,20.02 Q16.202,22.95 12.066,22.963 Q7.931,22.976 4.994,20.064 Q2.057,17.152 2.035,13.016 Q2.013,8.881 4.918,5.937 Q5.209,5.643 5.624,5.64 Q6.038,5.637 6.333,5.928 Q6.627,6.219 6.63,6.634 Q6.633,7.048 6.342,7.343 Q4.017,9.697 4.035,13.006 Q4.053,16.314 6.402,18.644 Q8.751,20.973 12.06,20.963 Q15.368,20.952 17.703,18.608 Q20.038,16.264 20.035,12.955 Q20.032,9.647 17.693,7.307 Q17.4,7.014 17.4,6.6 Q17.4,6.186 17.693,5.893 Q17.986,5.6 18.4,5.6 Q18.814,5.6 19.107,5.893 Z"/>
</svg>

